<svg xmlns="http://www.w3.org/2000/svg" version="1.1" xmlns:xlink="http://www.w3.org/1999/xlink" xmlns:svgjs="http://svgjs.dev/svgjs" width="800px" height="800px"><svg fill="#000000" width="800px" height="800px" viewBox="0 0 64 64" version="1.1" xmlns="http://www.w3.org/2000/svg" xmlns:xlink="http://www.w3.org/1999/xlink" xml:space="preserve" xmlns:serif="http://www.serif.com/" style="fill-rule:evenodd;clip-rule:evenodd;stroke-linejoin:round;stroke-miterlimit:2;">
    <g transform="matrix(1,0,0,1,-1152,-256)">
        <rect id="SvgjsRect1095" x="0" y="0" width="1280" height="800" style="fill:none;"></rect>
        <g id="SvgjsG1094" serif:id="Icons">
            <g id="SvgjsG1093">
            </g>
            <g id="SvgjsG1092">
            </g>
            <g id="SvgjsG1091">
            </g>
            <g id="SvgjsG1090">
            </g>
            <g id="SvgjsG1089">
            </g>
            <g id="SvgjsG1088">
            </g>
            <g id="SvgjsG1087">
            </g>
            <g id="SvgjsG1086">
            </g>
            <g id="SvgjsG1085">
            </g>
            <g id="SvgjsG1084">
            </g>
            <g id="SvgjsG1083">
            </g>
            <g id="SvgjsG1082">
            </g>
            <g id="SvgjsG1081">
            </g>
            <g id="SvgjsG1080">
            </g>
            <g id="SvgjsG1079" serif:id="Pen">
            </g>
            <g id="SvgjsG1078">
            </g>
            <g id="SvgjsG1077">
            </g>
            <g id="SvgjsG1076">
            </g>
            <g id="SvgjsG1075">
            </g>
            <g id="SvgjsG1074">
            </g>
            <g id="SvgjsG1073">
            </g>
            <g id="SvgjsG1072">
            </g>
            <g id="SvgjsG1071">
            </g>
            <g id="SvgjsG1070">
            </g>
            <g id="SvgjsG1069">
            </g>
            <g id="SvgjsG1068">
            </g>
            <g id="SvgjsG1067">
            </g>
            <g id="SvgjsG1066">
            </g>
            <g id="SvgjsG1065">
            </g>
            <g id="SvgjsG1064">
            </g>
            <g id="SvgjsG1063" serif:id="spinner [loading, dots]">
            </g>
            <g id="SvgjsG1062">
            </g>
            <g id="SvgjsG1061">
            </g>
            <g id="SvgjsG1060">
            </g>
            <g id="SvgjsG1059">
            </g>
            <g id="SvgjsG1058">
            </g>
            <g id="SvgjsG1057">
            </g>
            <g transform="matrix(0.638317,0.368532,-0.368532,0.638317,785.021,-208.975)">
                <g id="SvgjsG1056">
                    <g id="SvgjsG1055" serif:id="coffee-bean">
                    </g>
                </g>
            </g>
            <g id="SvgjsG1054" transform="matrix(0.866025,0.5,-0.5,0.866025,717.879,-387.292)">
                <g transform="matrix(1,0,0,1,0,-0.699553)">
                    <path d="M737.673,328.231C738.494,328.056 739.334,328.427 739.757,329.152C739.955,329.463 740.106,329.722 740.106,329.722C740.106,329.722 745.206,338.581 739.429,352.782C737.079,358.559 736.492,366.083 738.435,371.679C738.697,372.426 738.482,373.258 737.89,373.784C737.298,374.31 736.447,374.426 735.735,374.077C730.192,371.375 722.028,365.058 722.021,352C722.015,340.226 728.812,330.279 737.673,328.231Z"></path>
                </g>
                <g transform="matrix(-1,0,0,-1,1483.03,703.293)">
                    <path d="M737.609,328.246C738.465,328.06 739.344,328.446 739.785,329.203C739.97,329.49 740.106,329.722 740.106,329.722C740.106,329.722 745.206,338.581 739.429,352.782C737.1,358.507 736.503,365.948 738.383,371.527C738.646,372.304 738.415,373.164 737.796,373.703C737.177,374.243 736.294,374.356 735.56,373.989C730.02,371.241 722.028,364.92 722.021,352C722.016,340.255 728.779,330.328 737.609,328.246Z"></path>
                </g>
            </g>
            <g transform="matrix(0.638317,0.368532,-0.368532,0.638317,913.062,-208.975)">
                <g id="SvgjsG1053">
                    <g id="SvgjsG1052" serif:id="coffee-bean">
                    </g>
                </g>
            </g>
            <g id="SvgjsG1051">
            </g>
            <g transform="matrix(1,0,0,1,128.011,1.35415)">
                <g id="SvgjsG1050">
                </g>
            </g>
            <g id="SvgjsG1049">
            </g>
            <g id="SvgjsG1048">
            </g>
        </g>
    </g>
</svg><style>@media (prefers-color-scheme: light) { :root { filter: none; } }
@media (prefers-color-scheme: dark) { :root { filter: none; } }
</style></svg>